<svg width="41" height="19" viewBox="0 0 41 19" fill="none" xmlns="http://www.w3.org/2000/svg">
<path d="M28.7685 0.161017L27.7037 0.976836C27.4375 1.19153 27.4375 1.53503 27.7037 1.70678L35.9557 8.36215H0.638861C0.266192 8.36215 0 8.61977 0 8.8774V10.0797C0 10.3802 0.266192 10.5949 0.638861 10.5949H35.9557L27.7037 17.2932C27.4375 17.465 27.4375 17.8085 27.7037 18.0232L28.7685 18.839C28.9814 19.0537 29.4073 19.0537 29.6735 18.839L40.8004 9.86497C41.0666 9.65028 41.0666 9.34972 40.8004 9.13503L29.6735 0.161017C29.4073 -0.0536723 28.9814 -0.0536723 28.7685 0.161017Z" fill="#F27939"/>
</svg>
