<svg width="41" height="19" viewBox="0 0 41 19" fill="none" xmlns="http://www.w3.org/2000/svg">
<path d="M12.2315 18.839L13.2963 18.0232C13.5625 17.8085 13.5625 17.465 13.2963 17.2932L5.04434 10.6379L40.3611 10.6379C40.7338 10.6379 41 10.3802 41 10.1226V8.92034C41 8.61977 40.7338 8.40508 40.3611 8.40508L5.04434 8.40508L13.2963 1.70678C13.5625 1.53503 13.5625 1.19153 13.2963 0.976837L12.2315 0.161018C12.0186 -0.0536709 11.5927 -0.0536709 11.3265 0.161018L0.199642 9.13503C-0.0665512 9.34972 -0.0665512 9.65028 0.199642 9.86497L11.3265 18.839C11.5927 19.0537 12.0186 19.0537 12.2315 18.839Z" fill="#F27939"/>
</svg>
